<?xml version="1.0" encoding="UTF-8"?>
<svg id="Layer_2" data-name="Layer 2" xmlns="http://www.w3.org/2000/svg" viewBox="0 0 44.94 59.69">
  <g id="Layer_1-2" data-name="Layer 1">
    <path d="M42.72,28.67c-1.76-3.71-4.01-5.67-6.19-7.56-2.16-1.88-4.21-3.66-5.54-7.1-1.47-3.81-1.51-8.2-.13-13.06,.08-.28-.01-.59-.24-.78-.23-.19-.54-.23-.81-.1-3.86,1.87-9.32,5.47-13.39,11.99-2.49,3.99-4.08,8.56-4.64,13.27l-7.49-3.35c-.37-.16-.8,0-.98,.35-5.62,11.41-3.98,24.44,3.98,31.68,5,4.55,11.12,5.49,14.55,5.63,.22,.01,.41,.02,.6,.02,.04,0,.09,0,.13,0,.02,0,.04,0,.06,0,.03,0,.05,0,.08,0,.03,0,.05,0,.07,0,.02,0,.05,0,.07,0,.62,0,1.09-.03,1.37-.05,.55-.04,13.45-1.1,18.72-11.83,4.38-8.92,.26-18.12-.22-19.13Zm-15.99,2.24c.95,2.46,2.42,3.75,3.85,4.98,1.34,1.17,2.61,2.27,3.62,4.39,.28,.59,2.67,5.92,.15,11.06-1.62,3.3-4.5,5-6.89,5.88,.15-.22,.3-.44,.42-.7,1.14-2.32,.16-4.63-.05-5.06-.47-.99-1.08-1.52-1.62-1.99-.5-.44-.9-.78-1.16-1.47-.31-.79-.31-1.72-.02-2.75,.08-.28-.01-.59-.24-.78-.23-.19-.54-.23-.81-.1-.99,.48-2.39,1.4-3.43,3.08-.5,.81-.87,1.71-1.07,2.65l-1.11-.5c-.37-.16-.8,0-.98,.35-1.25,2.54-1.09,5.41,.32,7.37-1.34-.49-2.75-1.24-4.03-2.4-4.49-4.09-5.5-11.39-2.56-17.97l4.67,2.09c.22,.1,.48,.08,.69-.04,.21-.12,.35-.34,.37-.58,.26-3.03,1.24-5.98,2.83-8.53,1.95-3.13,4.44-5.13,6.53-6.37-.51,2.69-.34,5.17,.51,7.39Zm-.2,24.96c-1.02,2.08-3.59,2.3-3.7,2.31-.04,0-.09,0-.16,0-.12,0-.26,0-.4,0-.69-.04-1.85-.24-2.79-1.1-1.45-1.32-1.83-3.63-1.03-5.8l1.32,.59c.22,.1,.48,.09,.69-.04,.21-.12,.35-.34,.37-.58,.06-.74,.29-1.87,1-3.01,.45-.72,.97-1.26,1.49-1.68-.02,.7,.09,1.37,.33,1.99,.4,1.04,1.03,1.58,1.58,2.06,.49,.42,.91,.79,1.25,1.5,.1,.2,.91,2.02,.06,3.76Zm15.07-8.72c-2.04,4.15-5.32,6.74-8.49,8.35,.99-.94,1.89-2.08,2.59-3.49,2.83-5.77,.17-11.71-.14-12.36-1.14-2.4-2.65-3.72-3.99-4.88-1.4-1.22-2.62-2.27-3.43-4.39-.91-2.36-.93-5.08-.08-8.1,.08-.28-.01-.59-.24-.78-.23-.19-.54-.23-.81-.1-2.48,1.2-5.99,3.51-8.6,7.7-1.53,2.46-2.54,5.26-2.94,8.15l-4.41-1.97c-.37-.16-.8,0-.98,.35-3.54,7.18-2.58,15.36,2.27,20.08-1.38-.72-2.76-1.62-4.06-2.8C.99,46.26-.6,34.32,4.35,23.67l7.77,3.47c.22,.1,.48,.08,.69-.04,.21-.12,.35-.34,.37-.58,.42-4.85,1.98-9.57,4.53-13.65,3.39-5.43,7.79-8.74,11.3-10.68-1.02,4.53-.83,8.69,.59,12.37,1.46,3.79,3.74,5.78,5.95,7.7,2.06,1.79,4.19,3.64,5.82,7.07,.45,.95,4.3,9.54,.23,17.83Z"/>
  </g>
</svg>