<?xml version="1.0" encoding="UTF-8"?>
<svg id="Layer_2" data-name="Layer 2" xmlns="http://www.w3.org/2000/svg" viewBox="0 0 47.29 59.63">
  <g id="Layer_1-2" data-name="Layer 1">
    <g>
      <path d="M37.44,20.34H9.85c-1.52,0-2.76,1.24-2.76,2.76v5.68c0,1.52,1.24,2.76,2.76,2.76h27.6c1.52,0,2.76-1.24,2.76-2.76v-5.68c0-1.52-1.24-2.76-2.76-2.76Zm1.26,8.44c0,.7-.57,1.26-1.26,1.26H9.85c-.7,0-1.26-.57-1.26-1.26v-5.68c0-.7,.57-1.26,1.26-1.26h27.6c.7,0,1.26,.57,1.26,1.26v5.68Z"/>
      <path d="M25.75,25.19h-4.48c-.41,0-.75,.34-.75,.75s.34,.75,.75,.75h4.48c.41,0,.75-.34,.75-.75s-.34-.75-.75-.75Z"/>
      <path d="M37.44,34.19H9.85c-1.52,0-2.76,1.24-2.76,2.76v5.68c0,1.52,1.24,2.76,2.76,2.76h27.6c1.52,0,2.76-1.24,2.76-2.76v-5.68c0-1.52-1.24-2.76-2.76-2.76Zm1.26,8.44c0,.7-.57,1.26-1.26,1.26H9.85c-.7,0-1.26-.57-1.26-1.26v-5.68c0-.7,.57-1.26,1.26-1.26h27.6c.7,0,1.26,.57,1.26,1.26v5.68Z"/>
      <path d="M25.75,39.05h-4.48c-.41,0-.75,.34-.75,.75s.34,.75,.75,.75h4.48c.41,0,.75-.34,.75-.75s-.34-.75-.75-.75Z"/>
      <path d="M43.9,47.77V18.86c0-1.26-1.02-2.28-2.28-2.28h-6.01l.72-4.54c.04-.09,.06-.19,.06-.29,0-.01,0-.02,0-.04l.4-2.49c.12-.76-.1-1.54-.6-2.13-.5-.59-1.23-.93-2.01-.93h-5.23c-.77,0-1.51,.34-2.01,.93s-.72,1.36-.6,2.13l1.17,7.37h-8.99c1.12-.88,1.86-2.23,1.86-3.76,0-1.28-.51-2.43-1.33-3.29h4.46c.26,0,.5-.13,.64-.35,.14-.22,.15-.49,.04-.73L20.3,.42c-.12-.26-.39-.42-.67-.42H11.54c-.29,0-.55,.16-.67,.42l-3.89,8.02c-.11,.23-.1,.51,.04,.73,.14,.22,.38,.35,.64,.35h4.46c-.82,.86-1.33,2.02-1.33,3.29,0,1.53,.74,2.88,1.86,3.76H5.67c-1.26,0-2.28,1.02-2.28,2.28v28.91c-1.9,.2-3.38,1.79-3.38,3.74v.32c0,2.09,1.7,3.78,3.78,3.78h2.24v1.93c0,1.15,.94,2.09,2.09,2.09h4.98c1.15,0,2.09-.94,2.09-2.09v-1.93H31.98v1.93c0,1.15,.94,2.09,2.09,2.09h4.98c1.15,0,2.09-.94,2.09-2.09v-1.93h2.37c2.09,0,3.78-1.7,3.78-3.78v-.32c0-1.95-1.49-3.54-3.38-3.74ZM12.01,1.5h7.14l3.16,6.52H8.85L12.01,1.5Zm3.57,8.02c1.82,0,3.29,1.48,3.29,3.29s-1.48,3.29-3.29,3.29-3.29-1.48-3.29-3.29,1.48-3.29,3.29-3.29Zm12.5-1.47c.22-.25,.53-.4,.87-.4h5.23c.33,0,.65,.15,.87,.4,.22,.25,.31,.59,.26,.92l-.32,2.02h-6.84l-.32-2.02c-.05-.33,.04-.67,.26-.92Zm.3,4.44h6.36l-.65,4.09h-5.06l-.65-4.09ZM4.88,18.86c0-.43,.35-.78,.78-.78H41.62c.43,0,.78,.35,.78,.78v28.87H4.88V18.86ZM13.68,57.54c0,.33-.26,.59-.59,.59h-4.98c-.33,0-.59-.26-.59-.59v-1.93h6.16v1.93Zm25.96,0c0,.33-.26,.59-.59,.59h-4.98c-.33,0-.59-.26-.59-.59v-1.93h6.16v1.93Zm6.15-5.71c0,1.26-1.02,2.28-2.28,2.28H3.78c-1.26,0-2.28-1.02-2.28-2.28v-.32c0-1.26,1.02-2.28,2.28-2.28H43.51c1.26,0,2.28,1.02,2.28,2.28v.32Z"/>
    </g>
  </g>
</svg>