<?xml version="1.0" encoding="UTF-8"?>
<svg id="Layer_2" data-name="Layer 2" xmlns="http://www.w3.org/2000/svg" viewBox="0 0 59.65 59.52">
  <g id="Layer_1-2" data-name="Layer 1">
    <g>
      <path d="M58.9,51.65c-1.45,0-2.23,.55-2.85,1-.57,.4-1.01,.72-1.98,.72-.82,0-1.27-.24-1.74-.56-1.4-1.5-4.85-4.81-10.06-7.21,.13-2.5,.37-5.02,.71-7.49,.46-3.29,1.12-6.58,1.94-9.8,2.01,1.46,3.88,3.09,5.55,4.9,.99,1.06,1.92,2.19,2.78,3.35,.14,.19,.37,.31,.6,.31,.04,0,.09,0,.13-.01,.28-.05,.51-.26,.59-.53,.27-.93,.98-4.19-.98-7.1-.49-.73-1.1-1.36-1.78-1.88,.16,.02,.33,.02,.49,.04,1.22,.14,2.45,.35,3.64,.63,.06,.01,.11,.02,.17,.02,.22,0,.44-.1,.58-.27,.18-.22,.22-.53,.1-.79-.35-.76-1.7-3.3-4.63-4.12-2.43-.68-5.04,.05-6.98,1.82-.07-1.2-.41-2.71-1.51-4.06-2.01-2.47-5.55-3.3-8.81-2.04-.27,.11-.46,.36-.48,.65s.14,.57,.4,.71c1.05,.56,2.06,1.18,3.03,1.85-3.14-.06-6.21,1.75-7.94,4.8-.15,.26-.13,.57,.04,.81,.14,.2,.37,.31,.61,.31,.05,0,.1,0,.15-.01,3.02-.6,6.1-.84,9.15-.71,.77,.03,1.55,.09,2.32,.18-.8,2.17-1.54,4.38-2.17,6.6-.95,3.34-1.7,6.77-2.26,10.2-2.37-.66-4.98-1.08-7.82-1.08-1.01,0-1.98,.07-2.93,.16-.75-6-1.85-12-3.32-17.84-.97-3.85-2.11-7.7-3.39-11.47,1.19,.68,2.31,1.46,3.36,2.34,1.8,1.51,3.35,3.29,4.62,5.28,.14,.22,.38,.35,.63,.35,.02,0,.05,0,.07,0,.28-.03,.52-.21,.63-.47,.45-1.13,1.1-3.41,.31-6.04-.25-.83-.63-1.61-1.11-2.34,2.8,.2,5.6,.6,8.36,1.23,.06,.01,.11,.02,.17,.02,.23,0,.45-.11,.59-.29,.18-.23,.21-.55,.07-.81-2.6-4.91-7.69-7.63-12.67-6.77-.06,.01-.11,.03-.17,.04,2.07-1.49,4.25-2.83,6.55-3.97,.26-.13,.43-.4,.42-.7s-.19-.55-.46-.67C27.23-.91,22.38,.04,19.54,3.31c-.41-.47-.85-.91-1.35-1.28-.76-.56-1.55-1.15-2.73-1.2-.76-.04-1.44,.13-2.04,.48-1.01,.6-1.39,1.56-1.68,2.26-.35,.86-.53,1.82-.55,2.79-1.51-.38-3.09-.41-4.63-.03C2.54,7.34,.58,10.76,.08,11.78c-.13,.26-.1,.56,.08,.79,.14,.19,.36,.29,.59,.29,.05,0,.1,0,.15-.01,1.71-.34,3.45-.59,5.18-.74,.99-.08,1.99-.13,2.99-.15-1.98,.79-3.71,2.09-4.97,3.84-2.8,3.92-1.95,8.41-1.63,9.7,.07,.28,.29,.49,.57,.55,.05,.01,.1,.02,.16,.02,.23,0,.45-.1,.59-.29,1.26-1.61,2.63-3.17,4.07-4.62,.72-.73,1.46-1.43,2.23-2.12,.11,.83,.32,1.65,.66,2.41,1.13,2.52,3.16,3.79,4.26,4.32,.1,.05,.22,.07,.33,.07,.16,0,.33-.05,.46-.16,.23-.17,.33-.46,.28-.74-.46-2.32-.48-4.66-.05-6.96,.16-.85,.38-1.68,.66-2.5,1.24,5.45,2.18,11,2.78,16.54,.45,4.13,.71,8.33,.8,12.49-6.73,2.34-11.16,6.54-12.79,8.3-.47,.32-.92,.56-1.74,.56-.97,0-1.42-.32-1.98-.72-.63-.45-1.4-1-2.85-1-.41,0-.75,.34-.75,.75s.34,.75,.75,.75c.97,0,1.42,.32,1.98,.72,.62,.45,1.4,1,2.85,1,1.17,0,1.9-.36,2.47-.73,.05-.02,.1-.06,.15-.1,.08-.06,.16-.11,.24-.17,.57-.4,1.01-.72,1.98-.72s1.42,.32,1.98,.72c.63,.45,1.4,1,2.85,1s2.23-.55,2.85-1c.57-.4,1.01-.72,1.98-.72s1.41,.32,1.98,.72c.63,.45,1.4,1,2.85,1s2.23-.55,2.85-1c.57-.4,1.01-.72,1.98-.72s1.42,.32,1.98,.72c.63,.45,1.4,1,2.85,1s2.23-.55,2.85-1c.57-.4,1.01-.72,1.98-.72s1.42,.32,1.98,.72c.63,.45,1.4,1,2.85,1s2.23-.55,2.85-1c.57-.4,1.01-.72,1.98-.72s1.42,.32,1.98,.72c.1,.07,.2,.14,.31,.22,.03,.02,.05,.04,.08,.05,.57,.37,1.3,.73,2.46,.73,1.45,0,2.23-.55,2.85-1,.57-.4,1.01-.72,1.98-.72,.41,0,.75-.34,.75-.75s-.34-.75-.75-.75Zm-5.5-17.34c-.59-.73-1.2-1.44-1.84-2.12-1.67-1.8-3.53-3.44-5.52-4.91,.57-.04,1.14-.07,1.71-.08,1.9,.33,3.57,1.33,4.6,2.86,.99,1.47,1.14,3.07,1.05,4.25Zm-1.64-10.01c1.29,.36,2.2,1.16,2.8,1.91-.69-.12-1.39-.23-2.08-.31-1.29-.15-2.59-.22-3.89-.22-.2,0-.4,.02-.6,.02-.5-.09-1.02-.12-1.54-.13,1.54-1.25,3.53-1.77,5.31-1.27Zm-9.25-2.73c.8,.98,1.09,2.09,1.17,3.01-.46-.51-1.05-1.04-1.76-1.51-1.48-1.3-3.08-2.48-4.78-3.51,2.08-.23,4.14,.49,5.37,2.01Zm-10.31,4.33c1.46-1.64,3.49-2.61,5.51-2.61,.41,0,.83,.04,1.24,.12,.76,.16,1.42,.45,1.99,.79,.08,.07,.16,.13,.23,.2,.46,.41,.92,.84,1.36,1.29-.88-.1-1.76-.17-2.64-.21-2.56-.11-5.14,.03-7.69,.42Zm9.22,8.27c.6-2.1,1.3-4.2,2.06-6.27-.85,3.3-1.52,6.66-1.99,10.02-.32,2.34-.54,4.72-.68,7.08-.53-.21-1.08-.41-1.64-.6,.55-3.44,1.3-6.88,2.25-10.23ZM28.44,15.6c.41,1.37,.35,2.63,.16,3.61-1.16-1.59-2.51-3.04-4.02-4.3-.93-.78-1.93-1.49-2.97-2.12,.87-.05,1.74-.1,2.6-.11,.86-.01,1.73,.02,2.59,.05,.75,.84,1.33,1.82,1.64,2.88Zm-2.89-7.9c3.76-.65,7.74,1.18,10.18,4.54-3.58-.71-7.21-1.06-10.82-1.06-.24,0-.48,0-.71,0-1.55,.02-3.11,.11-4.67,.26,1.1-1.38,3.09-3.22,6.02-3.73Zm1.6-6.18c.75,0,1.5,.08,2.25,.26-2.83,1.54-5.49,3.35-7.93,5.41-.95,.8-1.87,1.64-2.75,2.51,.02-1.48,.38-3.59,1.92-5.37,1.57-1.82,3.98-2.8,6.51-2.8Zm-14.02,2.61c.29-.72,.52-1.22,1.05-1.53,.34-.2,.75-.29,1.2-.27,.72,.03,1.25,.42,1.91,.91,.5,.37,.93,.82,1.33,1.31-1.32,2.17-1.46,4.48-1.39,5.91-1.23-1.62-2.8-2.84-4.53-3.58-.05-.97,.09-1.91,.43-2.75Zm-7.18,6.48c-1.23,.1-2.47,.26-3.69,.46,.87-1.2,2.38-2.71,4.67-3.28,.6-.15,1.21-.22,1.83-.22,2.48,0,4.99,1.18,6.8,3.2-3.2-.38-6.42-.43-9.6-.16Zm.84,9.49c-1.09,1.1-2.14,2.26-3.14,3.46-.18-1.76-.07-4.46,1.67-6.89,1.86-2.61,5.07-4.08,8.48-4.08,.65,0,1.3,.05,1.95,.16-3.24,2.14-6.25,4.6-8.96,7.34Zm7.75-2.39c-.36,1.95-.43,3.93-.2,5.9-.79-.6-1.65-1.5-2.23-2.78-.42-.93-.62-1.96-.61-3.01,1.22-1.03,2.48-2.03,3.8-2.95-.32,.93-.58,1.87-.76,2.83Zm6.41,14.15c-.67-6.23-1.76-12.47-3.23-18.57,.09-.06,.18-.12,.27-.18,.02,0,.05,0,.07,0,.13-.02,.26-.02,.39-.04,1.43,4.09,2.68,8.29,3.74,12.48,1.45,5.78,2.55,11.71,3.29,17.65-1.31,.2-2.55,.49-3.73,.83-.1-4.06-.36-8.15-.8-12.18Zm25.43,20.79c-.57,.4-1.01,.72-1.98,.72s-1.42-.32-1.98-.72c-.62-.45-1.4-1-2.85-1s-2.23,.55-2.85,1c-.57,.4-1.01,.72-1.98,.72s-1.42-.32-1.98-.72c-.63-.45-1.4-1-2.85-1s-2.23,.55-2.85,1c-.57,.4-1.01,.72-1.98,.72s-1.42-.32-1.98-.72c-.63-.45-1.4-1-2.85-1s-2.23,.55-2.85,1c-.57,.4-1.01,.72-1.98,.72s-1.42-.32-1.98-.72c-.58-.41-1.3-.92-2.57-.99,3.52-3.02,10.08-7.29,19.05-7.29s15.53,4.27,19.05,7.29c-1.27,.07-1.99,.57-2.57,.99Z"/>
      <path d="M49.7,56.3c-1.45,0-2.23,.56-2.85,1-.57,.4-1.01,.72-1.98,.72s-1.42-.32-1.98-.72c-.63-.45-1.4-1-2.85-1s-2.23,.55-2.85,1c-.57,.4-1.01,.72-1.98,.72s-1.42-.32-1.98-.72c-.63-.45-1.4-1-2.85-1s-2.23,.56-2.85,1c-.57,.4-1.01,.72-1.98,.72s-1.42-.32-1.98-.72c-.63-.45-1.4-1-2.85-1s-2.23,.55-2.85,1c-.57,.4-1.01,.72-1.98,.72s-1.42-.32-1.98-.72c-.63-.45-1.4-1-2.85-1-.41,0-.75,.34-.75,.75s.34,.75,.75,.75c.97,0,1.41,.32,1.98,.72,.63,.45,1.4,1,2.85,1s2.23-.55,2.85-1c.57-.4,1.01-.72,1.98-.72s1.42,.32,1.98,.72c.63,.45,1.4,1,2.85,1s2.23-.56,2.85-1c.57-.4,1.01-.72,1.98-.72s1.42,.32,1.98,.72c.63,.45,1.4,1,2.85,1s2.23-.56,2.85-1c.57-.4,1.01-.72,1.98-.72s1.41,.32,1.98,.72c.63,.45,1.4,1,2.85,1s2.23-.55,2.85-1c.57-.4,1.01-.72,1.98-.72,.41,0,.75-.34,.75-.75s-.34-.75-.75-.75Z"/>
    </g>
  </g>
</svg>